# xmcd
#
# Track frame offsets: 
#        150
#        13268
#        29188
#        52063
#        68865
#        90585
#        109840
#        126790
#        142985
#        159208
#
# Disc length: 2307 seconds
#
# Revision: 0
# Processed by: cddbd v1.5.2PL0 Copyright (c) Steve Scherf et al.
# Submitted via: ExactAudioCopy v0.99pb5
#
DISCID=8909010a
DTITLE=Pet - Player One Ready
DYEAR=2004
DGENRE=Other
TTITLE0=No Yes No
TTITLE1=Hovercraft
TTITLE2=Superpet
TTITLE3=Intro Theme
TTITLE4=Time to Leave
TTITLE5=Snooze
TTITLE6=I-O
TTITLE7=Sleepless
TTITLE8=Picnic by the Sea
TTITLE9=Monza
EXTD=
EXTT0=
EXTT1=
EXTT2=
EXTT3=
EXTT4=
EXTT5=
EXTT6=
EXTT7=
EXTT8=
EXTT9=
PLAYORDER=
